<?xml version="1.0" standalone="no"?>
<!DOCTYPE svg PUBLIC "-//W3C//DTD SVG 20010904//EN"
 "http://www.w3.org/TR/2001/REC-SVG-20010904/DTD/svg10.dtd">
<svg version="1.0" xmlns="http://www.w3.org/2000/svg"
 width="300.000000pt" height="300.000000pt" viewBox="0 0 300.000000 300.000000"
 preserveAspectRatio="xMidYMid meet">
<metadata>
Created by potrace 1.11, written by Peter Selinger 2001-2013
</metadata>
<g transform="translate(0.000000,300.000000) scale(0.100000,-0.100000)"
fill="#000000" stroke="none">
<path d="M1407 2963 c-17 -16 -3 -33 56 -64 106 -56 191 -161 231 -286 18 -55
29 -170 17 -177 -3 -2 -33 5 -66 16 -111 38 -252 20 -362 -45 -19 -11 -35 -18
-36 -16 -1 2 -13 24 -26 49 -14 25 -38 61 -54 80 -38 46 -164 130 -194 130
-13 0 -23 4 -23 8 0 9 -6 9 -115 11 -102 2 -157 -10 -157 -34 0 -19 33 -24 90
-13 163 30 332 -56 415 -213 l28 -52 -29 -31 c-35 -38 -70 -88 -74 -107 -2 -8
-6 -17 -11 -20 -4 -3 -9 -16 -12 -29 -2 -12 -6 -25 -9 -27 -5 -5 -37 97 -42
132 -1 11 -5 43 -8 70 -10 77 -26 132 -47 153 -10 11 -16 21 -14 23 1 2 -3 10
-11 17 -8 7 -14 10 -14 6 0 -3 -7 -1 -15 6 -44 37 -166 -5 -251 -87 -70 -67
-86 -135 -59 -243 13 -54 42 -135 61 -172 13 -26 22 -48 18 -48 -3 0 4 -13 15
-29 12 -16 21 -32 21 -35 0 -11 64 -96 72 -96 4 0 7 -4 5 -8 -3 -13 83 -111
201 -228 90 -89 102 -105 93 -122 -6 -11 -7 -22 -4 -26 3 -3 0 -6 -7 -6 -7 0
-11 -3 -8 -6 4 -3 -5 -30 -19 -60 -14 -30 -26 -60 -27 -67 -2 -7 -5 -19 -8
-27 -39 -104 -56 -159 -51 -163 3 -3 1 -12 -3 -19 -5 -7 -9 -17 -10 -23 -1 -5
-9 -47 -18 -92 -10 -45 -19 -124 -22 -175 -19 -379 -27 -454 -50 -499 -7 -15
-10 -29 -7 -33 4 -3 2 -6 -3 -6 -13 0 -10 -40 5 -68 15 -28 117 -78 176 -88
112 -17 217 -5 293 33 65 33 80 60 86 149 3 36 7 69 10 71 3 3 5 -3 5 -13 -1
-11 2 -30 5 -44 6 -22 7 -79 4 -187 -2 -52 23 -69 120 -87 104 -19 153 -20
224 -4 29 6 56 11 61 10 4 -1 7 3 7 8 0 6 4 9 9 8 15 -5 101 63 116 92 13 26
13 42 -4 157 -11 70 -19 135 -20 143 0 8 -3 31 -5 50 -2 19 -7 62 -11 95 -6
51 -18 137 -41 280 -3 17 -7 39 -8 50 -2 11 -4 21 -5 23 -3 3 -3 81 -1 85 1 1
4 19 5 40 4 39 76 261 101 309 8 15 15 31 15 35 1 5 24 51 51 103 27 52 64
122 81 155 17 33 34 62 37 65 19 18 160 301 160 322 0 10 5 18 10 18 6 0 10 6
9 13 -1 6 1 19 4 27 18 45 46 153 42 160 -3 5 -1 11 4 14 12 8 11 178 -2 194
-5 6 -6 12 -2 12 4 0 -7 18 -24 39 -17 21 -31 44 -31 51 0 6 -4 9 -9 6 -5 -3
-15 1 -22 10 -20 24 -91 61 -131 68 -51 9 -111 -17 -149 -65 -17 -21 -28 -39
-25 -39 3 0 1 -11 -4 -25 -5 -13 -12 -60 -15 -102 -4 -43 -13 -114 -21 -158
-9 -44 -15 -88 -15 -98 0 -26 -23 -6 -39 33 -7 17 -17 30 -22 30 -5 0 -7 4 -4
8 5 9 -75 102 -88 102 -3 0 -15 8 -26 17 -17 14 -20 30 -20 88 0 69 -22 178
-40 199 -4 6 -9 14 -9 18 -3 18 -35 78 -43 78 -4 0 -8 6 -8 13 0 23 -105 120
-167 154 -59 33 -75 38 -86 26z"/>
</g>
</svg>
