<?xml version="1.0" standalone="no"?>
<!DOCTYPE svg PUBLIC "-//W3C//DTD SVG 20010904//EN"
 "http://www.w3.org/TR/2001/REC-SVG-20010904/DTD/svg10.dtd">
<svg version="1.0" xmlns="http://www.w3.org/2000/svg"
 width="114.000000pt" height="114.000000pt" viewBox="0 0 114.000000 114.000000"
 preserveAspectRatio="xMidYMid meet">
<metadata>
Created by potrace 1.11, written by Peter Selinger 2001-2013
</metadata>
<g transform="translate(0.000000,114.000000) scale(0.100000,-0.100000)"
fill="#000000" stroke="none">
<path d="M119 1093 c-3 -302 2 -635 12 -682 34 -164 179 -311 345 -349 53 -12
181 -8 231 8 176 53 304 198 329 370 28 190 -67 379 -236 469 -133 71 -300 75
-422 10 l-38 -20 0 120 0 121 -110 0 -110 0 -1 -47z m568 -357 c83 -42 133
-132 130 -231 -1 -33 -5 -64 -8 -70 -4 -5 -9 -22 -13 -38 -4 -15 -24 -45 -46
-67 -147 -147 -388 -60 -406 148 -12 128 53 237 164 273 39 13 143 4 179 -15z"/>
</g>
</svg>
