<?xml version="1.0" standalone="no"?>
<!DOCTYPE svg PUBLIC "-//W3C//DTD SVG 1.1//EN" "http://www.w3.org/Graphics/SVG/1.1/DTD/svg11.dtd">
<svg width="100%" height="100%" viewBox="0 0 1891 312" version="1.1" xmlns="http://www.w3.org/2000/svg" xmlns:xlink="http://www.w3.org/1999/xlink" xml:space="preserve" style="fill-rule:evenodd;clip-rule:evenodd;stroke-linejoin:round;stroke-miterlimit:1.41421;">
    <g transform="matrix(1,0,0,1,-366.632,-327.962)">
        <g transform="matrix(4.16667,0,0,4.16667,0,0)">
            <path d="M154.653,103.51C151.547,103.51 148.96,104.591 146.892,106.754C144.826,108.914 143.792,111.679 143.792,115.05C143.792,118.518 144.813,121.326 146.857,123.475C148.899,125.625 151.485,126.698 154.617,126.698C157.747,126.698 160.352,125.612 162.431,123.438C164.51,121.265 165.551,118.468 165.551,115.05C165.551,111.631 164.529,108.854 162.487,106.715C160.444,104.579 157.834,103.51 154.653,103.51M154.489,94.097C158.25,94.097 161.784,95.035 165.093,96.917C168.403,98.798 170.985,101.35 172.841,104.573C174.697,107.797 175.625,111.277 175.625,115.012C175.625,118.774 174.691,122.291 172.822,125.563C170.955,128.835 168.409,131.393 165.184,133.237C161.962,135.08 158.408,136.004 154.525,136.004C148.81,136.004 143.932,133.969 139.89,129.903C135.849,125.838 133.829,120.899 133.829,115.086C133.829,108.86 136.112,103.67 140.678,99.518C144.683,95.904 149.287,94.097 154.489,94.097" style="fill:rgb(12,127,147);fill-rule:nonzero;"/>
        </g>
        <g transform="matrix(4.16667,0,0,4.16667,0,0)">
            <path d="M201.184,103.51C198.078,103.51 195.49,104.591 193.424,106.754C191.356,108.914 190.324,111.679 190.324,115.05C190.324,118.518 191.344,121.326 193.387,123.475C195.429,125.625 198.017,126.698 201.148,126.698C204.278,126.698 206.883,125.612 208.963,123.438C211.041,121.265 212.082,118.468 212.082,115.05C212.082,111.631 211.06,108.854 209.018,106.715C206.975,104.579 204.365,103.51 201.184,103.51M201.019,94.097C204.78,94.097 208.315,95.035 211.624,96.917C214.933,98.798 217.516,101.35 219.372,104.573C221.227,107.797 222.156,111.277 222.156,115.012C222.156,118.774 221.221,122.291 219.354,125.563C217.485,128.835 214.939,131.393 211.716,133.237C208.493,135.08 204.939,136.004 201.056,136.004C195.341,136.004 190.463,133.969 186.422,129.903C182.38,125.838 180.359,120.899 180.359,115.086C180.359,108.86 182.643,103.67 187.209,99.518C191.215,95.904 195.818,94.097 201.019,94.097" style="fill:rgb(12,127,147);fill-rule:nonzero;"/>
        </g>
        <g transform="matrix(4.16667,0,0,4.16667,0,0)">
            <path d="M228.904,79.738L238.904,79.738L238.904,111.553L253.63,95.123L266.188,95.123L249.02,114.225L268.242,134.977L255.828,134.977L238.904,116.61L238.904,134.977L228.904,134.977L228.904,79.738Z" style="fill:rgb(12,127,147);fill-rule:nonzero;"/>
        </g>
        <g transform="matrix(4.16667,0,0,4.16667,0,0)">
            <path d="M274.236,95.122L284.236,95.122L284.236,134.976L274.236,134.976L274.236,95.122ZM279.236,78.711C280.989,78.711 282.494,79.347 283.748,80.618C285.001,81.887 285.628,83.425 285.628,85.232C285.628,87.015 285.007,88.536 283.766,89.793C282.522,91.049 281.038,91.68 279.309,91.68C277.531,91.68 276.016,91.037 274.762,89.756C273.508,88.475 272.881,86.917 272.881,85.086C272.881,83.327 273.501,81.826 274.742,80.58C275.984,79.335 277.482,78.711 279.236,78.711" style="fill:rgb(12,127,147);fill-rule:nonzero;"/>
        </g>
        <g transform="matrix(4.16667,0,0,4.16667,0,0)">
            <path d="M294.814,95.122L304.814,95.122L304.814,99.206C307.083,97.296 309.136,95.967 310.977,95.217C312.816,94.471 314.703,94.097 316.628,94.097C320.581,94.097 323.932,95.476 326.688,98.234C329.005,100.58 330.164,104.049 330.164,108.641L330.164,134.976L320.273,134.976L320.273,117.523C320.273,112.767 320.058,109.608 319.631,108.049C319.207,106.486 318.463,105.299 317.405,104.48C316.343,103.664 315.035,103.254 313.475,103.254C311.453,103.254 309.717,103.93 308.268,105.285C306.819,106.64 305.814,108.512 305.251,110.902C304.96,112.145 304.814,114.842 304.814,118.986L304.814,134.976L294.814,134.976L294.814,95.122Z" style="fill:rgb(12,127,147);fill-rule:nonzero;"/>
        </g>
        <g transform="matrix(4.16667,0,0,4.16667,0,0)">
            <path d="M434.368,95.122L444.478,95.122L444.478,114.318C444.478,118.054 444.735,120.648 445.248,122.101C445.762,123.554 446.587,124.684 447.727,125.49C448.864,126.295 450.267,126.697 451.932,126.697C453.597,126.697 455.012,126.301 456.173,125.508C457.336,124.715 458.199,123.548 458.763,122.01C459.18,120.862 459.387,118.406 459.387,114.647L459.387,95.122L469.386,95.122L469.386,112.008C469.386,118.969 468.838,123.731 467.738,126.295C466.397,129.422 464.417,131.821 461.804,133.492C459.191,135.166 455.869,136.004 451.839,136.004C447.471,136.004 443.936,135.026 441.235,133.072C438.538,131.119 436.639,128.394 435.54,124.904C434.759,122.486 434.368,118.089 434.368,111.717L434.368,95.122Z" style="fill:rgb(135,198,111);fill-rule:nonzero;"/>
        </g>
        <g transform="matrix(4.16667,0,0,4.16667,0,0)">
            <path d="M116.595,123.438C114.516,125.612 111.91,126.698 108.781,126.698C105.65,126.698 103.063,125.626 101.021,123.475C98.977,121.327 97.955,118.518 97.955,115.05C97.955,111.679 98.99,108.915 101.056,106.754C103.123,104.591 105.71,103.51 108.817,103.51C111.997,103.51 114.608,104.58 116.651,106.715C118.693,108.854 119.715,111.631 119.715,115.05C119.715,118.468 118.675,121.265 116.595,123.438M127.004,104.573C125.149,101.35 122.567,98.798 119.257,96.917C115.948,95.036 112.413,94.097 108.653,94.097C104.735,94.097 101.158,95.124 97.92,97.174L97.92,79.761L87.992,79.761L87.992,115.086C87.992,120.899 90.013,125.838 94.054,129.903C98.096,133.969 102.974,136.004 108.689,136.004C112.572,136.004 116.125,135.081 119.348,133.237C122.573,131.393 125.118,128.835 126.986,125.563C128.855,122.292 129.788,118.774 129.788,115.012C129.788,111.277 128.861,107.797 127.004,104.573" style="fill:rgb(12,127,147);fill-rule:nonzero;"/>
        </g>
        <g transform="matrix(4.16667,0,0,4.16667,0,0)">
            <path d="M414.701,123.438C412.621,125.612 410.014,126.698 406.886,126.698C403.754,126.698 401.167,125.626 399.126,123.475C397.082,121.327 396.06,118.518 396.06,115.05C396.06,111.679 397.095,108.915 399.161,106.754C401.228,104.591 403.815,103.51 406.923,103.51C410.101,103.51 412.712,104.58 414.756,106.715C416.798,108.854 417.821,111.631 417.821,115.05C417.821,118.468 416.78,121.265 414.701,123.438M425.108,104.573C423.254,101.35 420.67,98.798 417.363,96.917C414.054,95.036 410.518,94.097 406.757,94.097C402.841,94.097 399.263,95.124 396.026,97.174L396.026,79.761L386.098,79.761L386.098,115.086C386.098,120.899 388.118,125.838 392.159,129.903C396.201,133.969 401.08,136.004 406.795,136.004C410.677,136.004 414.231,135.081 417.454,133.237C420.676,131.393 423.222,128.835 425.092,125.563C426.961,122.292 427.893,118.774 427.893,115.012C427.893,111.277 426.967,107.797 425.108,104.573" style="fill:rgb(135,198,111);fill-rule:nonzero;"/>
        </g>
        <g transform="matrix(4.16667,0,0,4.16667,0,0)">
            <path d="M365.005,123.469C362.937,125.631 360.35,126.711 357.243,126.711C354.063,126.711 351.453,125.642 349.408,123.506C347.367,121.368 346.345,118.59 346.345,115.172C346.345,111.752 347.385,108.957 349.464,106.782C351.543,104.61 354.151,103.522 357.279,103.522C360.411,103.522 362.998,104.598 365.039,106.748C367.084,108.897 368.105,111.703 368.105,115.172C368.105,118.541 367.07,121.309 365.005,123.469M372.006,100.318C367.965,96.252 363.086,94.219 357.371,94.219C353.488,94.219 349.935,95.141 346.711,96.985C343.488,98.827 340.942,101.386 339.073,104.66C337.205,107.932 336.271,111.448 336.271,115.207C336.271,118.946 337.199,122.426 339.056,125.648C340.91,128.871 343.494,131.425 346.803,133.303C350.111,135.184 353.646,136.124 357.407,136.124C361.295,136.124 364.902,135.092 368.12,133.073C368.146,133.058 368.114,136.05 368.14,136.035C367.972,139.985 365.27,142.104 363.634,142.934C361.998,143.764 359.835,144.179 357.15,144.179C355.049,144.179 353.231,143.892 351.692,143.319C350.152,142.744 348.896,141.896 347.918,140.774L336.892,140.774C337.773,143.484 339.126,145.784 340.959,147.677C342.79,149.57 345.037,151.004 347.699,151.982C350.36,152.958 353.646,153.448 357.554,153.448C364.879,153.448 370.361,151.299 374,147C376.71,143.824 378.067,138.867 378.067,132.127L378.067,115.135C378.067,109.323 376.047,104.384 372.006,100.318" style="fill:rgb(12,127,147);fill-rule:nonzero;"/>
        </g>
        <g transform="matrix(4.16667,0,0,4.16667,0,0)">
            <path d="M526.191,125.625L523.254,125.625L523.254,124.395L530.779,124.395L530.779,125.625L527.838,125.625L527.838,132.227L526.191,132.227L526.191,125.625Z" style="fill:rgb(12,127,147);fill-rule:nonzero;"/>
        </g>
        <g transform="matrix(4.16667,0,0,4.16667,0,0)">
            <path d="M531.578,124.395L533.946,124.395L536.69,130.471L539.411,124.395L541.753,124.395L541.753,132.227L540.207,132.227L540.271,125.756L540.254,125.756L537.357,132.227L535.952,132.227L533.08,125.756L533.059,125.756L533.123,132.227L531.578,132.227L531.578,124.395Z" style="fill:rgb(12,127,147);fill-rule:nonzero;"/>
        </g>
        <g transform="matrix(4.16667,0,0,4.16667,0,0)">
            <path d="M504.649,123.512C502.582,125.674 499.995,126.753 496.889,126.753C493.708,126.753 491.097,125.686 489.053,123.548C487.011,121.41 485.991,118.635 485.991,115.215C485.991,111.795 487.029,108.999 489.108,106.826C491.187,104.655 493.795,103.567 496.923,103.567C500.056,103.567 502.642,104.641 504.684,106.789C506.728,108.94 507.749,111.746 507.749,115.215C507.749,118.584 506.716,121.351 504.649,123.512M511.651,100.362C507.609,96.296 502.73,94.262 497.017,94.262C493.132,94.262 489.581,95.185 486.355,97.028C483.132,98.871 480.587,101.428 478.717,104.701C476.851,107.974 475.916,111.49 475.916,115.252C475.916,118.987 476.845,122.467 478.7,125.692C480.555,128.914 483.138,131.467 486.449,133.347C489.755,135.228 493.291,136.166 497.052,136.166C500.939,136.166 504.546,135.135 507.766,133.116C507.79,133.1 507.76,136.094 507.784,136.078C507.618,140.028 504.915,142.147 503.278,142.977C501.642,143.807 499.481,144.221 496.795,144.221C494.693,144.221 492.877,143.936 491.336,143.362C489.796,142.786 488.54,141.938 487.563,140.815L476.537,140.815C477.418,143.528 478.77,145.828 480.604,147.721C482.436,149.614 484.681,151.048 487.344,152.026C490.006,153.002 493.291,153.489 497.198,153.489C504.523,153.489 510.006,151.342 513.645,147.043C516.355,143.868 517.711,138.91 517.711,132.172L517.711,115.178C517.711,109.366 515.693,104.426 511.651,100.362" style="fill:rgb(135,198,111);fill-rule:nonzero;"/>
        </g>
    </g>
</svg>
